# xmcd
# 
# Track frame offsets:
#     150
#     15442
#     31972
#     49152
#     63773
#     79983
#     99505
#     118275
#     136029
#     150368
#     167489
#     185630
#     200259
#     219066
# 
# Disc length: 3176
# 
# Revision: 1
# Processed by: cddbd v1.5.2PL0 Copyright (c) Steve Scherf et al.
# Submitted via: BonkEnc v1.0.15
# 
DISCID=aa0c660e
DTITLE=Leonardo - Audiência
DYEAR=2006
DGENRE=Sertanejo
TTITLE0=Se Ainda Existe Amor
TTITLE1=Nervos de Aço
TTITLE2=Pareço um Menino
TTITLE3=Meu Mel
TTITLE4=Fantasias
TTITLE5=Coração Espinhado
TTITLE6=Sinhá Moça
TTITLE7=Um Sonhador
TTITLE8=Te Amo Demais
TTITLE9=Quero Acender Teu Fogo
TTITLE10=Quero Colo
TTITLE11=Todas As Coisas do Mundo
TTITLE12=Cristal Quebrado
TTITLE13=Eu Juro
EXTD=
EXTT0=
EXTT1=
EXTT2=
EXTT3=
EXTT4=
EXTT5=
EXTT6=
EXTT7=
EXTT8=
EXTT9=
EXTT10=
EXTT11=
EXTT12=
EXTT13=
PLAYORDER=
